<svg xmlns="http://www.w3.org/2000/svg" width="512" height="512" viewBox="0 0 512 512">
  <rect width="512" height="512" rx="108" fill="#059669"/>
  <!-- Lucide Cross icon scaled from 24x24 viewBox to fit inside 512 with padding -->
  <g transform="translate(86, 86) scale(14.167)">
    <path d="M4 9a2 2 0 0 0-2 2v2a2 2 0 0 0 2 2h4a1 1 0 0 1 1 1v4a2 2 0 0 0 2 2h2a2 2 0 0 0 2-2v-4a1 1 0 0 1 1-1h4a2 2 0 0 0 2-2v-2a2 2 0 0 0-2-2h-4a1 1 0 0 1-1-1V4a2 2 0 0 0-2-2h-2a2 2 0 0 0-2 2v4a1 1 0 0 1-1 1z" fill="white"/>
  </g>
</svg>
